<?xml version="1.0" encoding="UTF-8" ?>
<!DOCTYPE svg PUBLIC "-//W3C//DTD SVG 1.1//EN" "http://www.w3.org/Graphics/SVG/1.1/DTD/svg11.dtd">
<svg width="714pt" height="594pt" viewBox="0 0 714 594" version="1.1" xmlns="http://www.w3.org/2000/svg">
<path fill="#00adee" opacity="1.00" d=" M 402.69 9.37 C 412.93 5.55 423.33 19.07 417.35 27.99 C 413.69 35.73 401.72 37.92 396.22 30.80 C 389.57 24.74 392.64 9.42 402.69 9.37 Z" />
<path fill="#00adee" opacity="1.00" d=" M 516.70 18.34 C 528.93 14.27 535.03 34.41 522.96 38.40 C 509.46 44.82 502.48 20.37 516.70 18.34 Z" />
<path fill="#00adee" opacity="1.00" d=" M 670.85 24.42 C 688.70 18.81 706.89 38.32 700.97 55.67 C 696.22 71.14 674.77 78.57 662.13 67.98 C 646.12 57.09 651.67 28.15 670.85 24.42 Z" />
<path fill="#00adee" opacity="1.00" d=" M 482.28 67.53 C 479.28 52.05 503.11 57.75 494.12 70.29 C 489.92 70.46 485.72 70.14 482.28 67.53 Z" />
<path fill="#00adee" opacity="1.00" d=" M 585.96 60.40 C 607.54 52.91 618.75 89.21 595.93 94.69 C 573.92 102.05 564.70 65.60 585.96 60.40 Z" />
<path fill="#00adee" opacity="1.00" d=" M 348.88 70.21 C 350.42 60.14 364.70 58.19 371.00 65.16 C 386.12 84.76 344.06 96.12 348.88 70.21 Z" />
<path fill="#000000" opacity="1.00" d=" M 371.00 65.16 C 407.64 59.41 446.38 57.32 482.28 67.53 C 485.72 70.14 489.92 70.46 494.12 70.29 C 542.84 83.08 587.52 112.79 617.11 153.83 C 620.09 158.61 626.42 157.86 631.09 159.86 C 663.23 170.88 683.33 203.22 689.59 235.34 C 699.54 275.76 690.71 321.43 663.19 353.16 C 655.90 358.64 650.97 366.20 648.27 374.84 C 668.49 382.37 688.74 389.80 708.96 397.34 C 680.19 402.18 651.01 405.53 622.50 411.24 C 563.62 470.81 474.51 486.82 393.98 485.01 C 358.93 486.97 324.34 480.08 290.28 473.13 C 266.00 481.55 242.46 492.63 218.99 503.24 C 214.75 494.83 210.83 486.16 207.98 477.19 C 221.11 469.61 236.44 466.48 249.15 458.15 C 236.62 454.78 226.43 443.76 213.69 442.84 C 191.26 451.51 169.70 462.58 147.18 471.02 C 143.87 462.24 139.32 454.01 136.03 445.24 C 153.69 437.14 172.73 431.18 189.31 421.14 C 162.22 398.10 144.55 364.96 138.80 330.00 C 126.15 336.00 114.25 343.42 101.81 349.82 C 111.20 335.32 121.87 321.65 130.96 306.95 C 98.51 320.02 66.51 334.29 34.31 347.92 C 26.45 323.25 15.86 299.40 9.14 274.41 C 46.75 268.24 84.70 264.63 122.30 258.35 C 86.03 249.36 50.05 239.24 13.89 229.81 C 17.91 221.21 21.61 212.45 26.21 204.14 C 32.63 202.75 38.90 200.82 45.14 198.79 C 43.18 193.03 38.58 188.49 36.38 183.01 C 42.75 172.32 45.50 157.84 53.94 149.15 C 84.77 171.07 114.75 194.39 145.14 217.00 C 133.10 199.19 139.77 176.21 154.99 162.87 C 143.35 134.71 146.86 99.18 169.82 77.69 C 170.94 76.12 172.70 77.49 173.08 78.91 C 182.32 101.96 198.82 121.38 216.89 138.05 C 214.98 114.92 220.64 87.24 240.69 73.12 C 244.94 85.78 252.52 97.00 259.97 107.96 C 287.55 91.14 317.67 78.49 348.88 70.21 C 344.06 96.12 386.12 84.76 371.00 65.16 M 450.89 96.00 C 435.25 87.20 417.49 104.36 424.99 120.66 C 390.46 161.19 370.32 213.02 367.38 266.14 C 350.67 223.05 343.85 175.78 350.88 129.96 C 354.23 116.09 357.66 102.21 362.92 88.92 C 353.53 91.06 343.65 92.56 335.06 97.02 C 325.26 109.49 315.90 123.35 312.26 139.00 C 300.77 163.34 299.80 192.17 302.62 218.63 C 323.54 244.31 339.79 276.21 338.39 310.09 C 330.91 256.83 286.61 219.65 247.34 187.65 C 219.28 163.02 182.68 143.12 168.18 106.81 C 162.44 122.89 164.29 141.08 171.72 156.31 C 188.14 191.36 217.20 218.35 247.27 241.75 C 212.34 232.30 180.99 210.07 161.06 179.80 C 151.31 190.12 152.90 205.87 162.18 215.86 C 190.76 247.33 231.74 262.69 269.99 279.04 C 235.45 277.47 200.36 268.34 171.89 248.13 C 168.67 273.64 184.96 297.43 208.04 306.95 C 230.66 317.34 255.88 319.06 280.37 320.68 C 246.99 323.28 209.28 325.89 180.31 305.71 C 169.60 298.25 163.16 286.65 159.02 274.57 C 153.78 296.88 157.74 320.07 162.90 342.04 C 174.65 383.49 207.81 415.88 246.13 433.88 C 284.15 452.33 326.42 460.35 368.28 463.85 C 441.44 466.56 521.35 460.52 583.09 417.02 C 562.78 419.88 542.61 425.39 522.03 425.42 C 528.76 405.84 536.52 386.64 543.00 366.97 C 535.42 372.00 527.58 376.53 519.28 380.24 C 482.57 394.52 439.20 378.70 417.03 346.98 C 372.97 289.75 387.00 192.51 453.88 158.87 C 474.86 149.07 499.39 148.38 520.92 157.00 C 524.62 160.81 529.67 163.62 534.99 164.17 C 541.28 169.56 548.18 174.25 553.97 180.24 C 554.94 181.24 555.94 182.23 556.94 183.23 C 563.50 176.15 571.59 170.94 579.19 165.12 C 580.59 164.50 581.94 163.76 583.29 163.02 C 586.89 161.68 590.45 160.24 593.99 158.75 C 563.67 120.79 518.69 95.14 471.13 85.94 C 462.44 83.33 457.60 92.48 450.89 96.00 M 233.41 126.14 C 237.00 123.49 240.53 120.76 244.07 118.04 C 240.53 113.99 238.60 108.91 236.69 103.96 C 233.65 110.93 232.57 118.57 233.41 126.14 M 247.96 167.19 L 248.56 166.74 C 257.62 174.22 265.96 182.51 274.93 190.10 C 271.74 179.17 268.02 168.39 265.87 157.18 C 263.70 148.67 263.88 139.87 263.75 131.16 C 248.93 134.64 239.05 154.71 247.96 167.19 M 443.44 192.72 C 415.24 219.79 406.52 263.07 418.03 299.95 C 426.66 337.95 465.49 374.74 506.36 360.91 C 530.73 356.37 546.17 333.17 557.82 312.99 C 562.66 320.03 566.79 327.53 572.01 334.32 C 584.00 350.51 607.92 362.59 627.11 352.16 C 636.40 349.84 643.29 342.39 649.55 335.55 C 677.13 300.35 679.14 248.18 657.36 209.64 C 646.57 190.68 625.41 173.78 602.43 178.89 C 580.74 184.30 567.85 204.04 557.20 222.07 C 546.93 203.69 533.33 186.30 513.62 177.41 C 490.18 167.16 460.50 174.18 443.44 192.72 M 566.01 366.96 C 561.47 377.76 557.79 388.91 554.01 400.00 C 577.74 396.48 601.78 393.57 625.17 388.56 C 605.31 381.75 585.83 373.87 566.01 366.96 Z" />
<path fill="#fbd6db" opacity="1.00" d=" M 450.89 96.00 C 457.60 92.48 462.44 83.33 471.13 85.94 C 518.69 95.14 563.67 120.79 593.99 158.75 C 590.45 160.24 586.89 161.68 583.29 163.02 C 574.56 157.03 565.01 152.40 555.49 147.83 C 556.96 128.04 531.16 119.53 519.86 134.97 C 499.29 128.42 477.84 125.09 456.38 123.17 C 462.18 114.32 460.36 101.53 450.89 96.00 Z" />
<path fill="#fbd6db" opacity="1.00" d=" M 335.06 97.02 C 343.65 92.56 353.53 91.06 362.92 88.92 C 357.66 102.21 354.23 116.09 350.88 129.96 C 337.86 132.31 325.17 136.11 312.26 139.00 C 315.90 123.35 325.26 109.49 335.06 97.02 Z" />
<path fill="#00adee" opacity="1.00" d=" M 424.99 120.66 C 417.49 104.36 435.25 87.20 450.89 96.00 C 460.36 101.53 462.18 114.32 456.38 123.17 C 447.97 133.35 431.94 131.42 424.99 120.66 Z" />
<path fill="#efb7c0" opacity="1.00" d=" M 233.41 126.14 C 232.57 118.57 233.65 110.93 236.69 103.96 C 238.60 108.91 240.53 113.99 244.07 118.04 C 240.53 120.76 237.00 123.49 233.41 126.14 Z" />
<path fill="#efb7c0" opacity="1.00" d=" M 168.18 106.81 C 182.68 143.12 219.28 163.02 247.34 187.65 C 286.61 219.65 330.91 256.83 338.39 310.09 C 339.79 276.21 323.54 244.31 302.62 218.63 C 299.80 192.17 300.77 163.34 312.26 139.00 C 325.17 136.11 337.86 132.31 350.88 129.96 C 343.85 175.78 350.67 223.05 367.38 266.14 C 370.32 213.02 390.46 161.19 424.99 120.66 C 431.94 131.42 447.97 133.35 456.38 123.17 C 477.84 125.09 499.29 128.42 519.86 134.97 C 518.30 142.20 516.39 150.47 520.92 157.00 C 499.39 148.38 474.86 149.07 453.88 158.87 C 428.82 166.29 410.45 187.54 399.39 210.39 C 377.40 259.33 379.49 320.53 411.17 364.83 C 433.43 401.61 488.13 410.94 519.28 380.24 C 527.58 376.53 535.42 372.00 543.00 366.97 C 536.52 386.64 528.76 405.84 522.03 425.42 C 505.60 428.88 489.35 434.63 472.38 434.71 C 444.61 429.17 422.80 408.23 395.14 402.53 C 375.69 398.19 361.42 418.76 341.87 413.43 C 321.59 409.81 303.27 386.90 281.71 398.97 C 264.18 407.20 254.83 384.33 243.05 375.98 C 231.57 365.72 215.91 381.36 203.77 373.28 C 188.76 364.78 175.83 353.32 162.90 342.04 C 157.74 320.07 153.78 296.88 159.02 274.57 C 163.16 286.65 169.60 298.25 180.31 305.71 C 209.28 325.89 246.99 323.28 280.37 320.68 C 255.88 319.06 230.66 317.34 208.04 306.95 C 184.96 297.43 168.67 273.64 171.89 248.13 C 200.36 268.34 235.45 277.47 269.99 279.04 C 231.74 262.69 190.76 247.33 162.18 215.86 C 152.90 205.87 151.31 190.12 161.06 179.80 C 180.99 210.07 212.34 232.30 247.27 241.75 C 217.20 218.35 188.14 191.36 171.72 156.31 C 164.29 141.08 162.44 122.89 168.18 106.81 M 356.35 351.45 C 349.73 354.70 354.71 364.10 360.59 364.95 C 372.91 365.81 385.12 360.30 393.89 351.84 C 393.96 351.13 394.11 349.71 394.18 349.00 C 381.81 347.86 367.75 345.33 356.35 351.45 M 366.81 386.43 C 366.74 396.92 381.39 395.15 387.96 394.47 C 401.70 390.57 403.29 374.92 403.95 363.01 C 390.47 368.71 376.81 375.40 366.81 386.43 Z" />
<path fill="#00adee" opacity="1.00" d=" M 622.88 125.38 C 636.93 119.70 645.61 141.61 631.75 147.17 C 617.78 154.29 608.92 129.99 622.88 125.38 Z" />
<path fill="#00adee" opacity="1.00" d=" M 519.86 134.97 C 531.16 119.53 556.96 128.04 555.49 147.83 C 552.21 156.74 545.14 164.55 534.99 164.17 C 529.67 163.62 524.62 160.81 520.92 157.00 C 516.39 150.47 518.30 142.20 519.86 134.97 Z" />
<path fill="#fbd6db" opacity="1.00" d=" M 247.96 167.19 C 239.05 154.71 248.93 134.64 263.75 131.16 C 263.88 139.87 263.70 148.67 265.87 157.18 C 259.89 159.95 253.77 162.64 248.56 166.74 L 247.96 167.19 Z" />
<path fill="#efb7c0" opacity="1.00" d=" M 555.49 147.83 C 565.01 152.40 574.56 157.03 583.29 163.02 C 581.94 163.76 580.59 164.50 579.19 165.12 C 569.73 168.25 561.92 174.47 553.97 180.24 C 548.18 174.25 541.28 169.56 534.99 164.17 C 545.14 164.55 552.21 156.74 555.49 147.83 Z" />
<path fill="#efb7c0" opacity="1.00" d=" M 248.56 166.74 C 253.77 162.64 259.89 159.95 265.87 157.18 C 268.02 168.39 271.74 179.17 274.93 190.10 C 265.96 182.51 257.62 174.22 248.56 166.74 Z" />
<path fill="#db5c87" opacity="1.00" d=" M 399.39 210.39 C 410.45 187.54 428.82 166.29 453.88 158.87 C 387.00 192.51 372.97 289.75 417.03 346.98 C 439.20 378.70 482.57 394.52 519.28 380.24 C 488.13 410.94 433.43 401.61 411.17 364.83 C 379.49 320.53 377.40 259.33 399.39 210.39 Z" />
<path fill="#da5d87" opacity="1.00" d=" M 553.97 180.24 C 561.92 174.47 569.73 168.25 579.19 165.12 C 571.59 170.94 563.50 176.15 556.94 183.23 C 555.94 182.23 554.94 181.24 553.97 180.24 Z" />
<path fill="#ffffff" opacity="1.00" d=" M 443.44 192.72 C 460.50 174.18 490.18 167.16 513.62 177.41 C 533.33 186.30 546.93 203.69 557.20 222.07 C 567.85 204.04 580.74 184.30 602.43 178.89 C 625.41 173.78 646.57 190.68 657.36 209.64 C 679.14 248.18 677.13 300.35 649.55 335.55 C 643.29 342.39 636.40 349.84 627.11 352.16 C 608.61 348.65 593.62 335.49 583.75 320.00 C 579.87 324.80 576.25 329.82 572.01 334.32 C 566.79 327.53 562.66 320.03 557.82 312.99 C 546.17 333.17 530.73 356.37 506.36 360.91 C 471.11 355.70 443.72 326.23 434.07 292.95 C 422.79 259.81 428.57 223.65 443.44 192.72 M 475.85 221.13 C 486.75 241.10 496.36 261.76 506.88 281.92 C 498.24 288.33 488.05 292.94 478.76 298.56 C 501.48 299.43 524.35 296.70 547.11 295.88 C 523.28 271.03 500.23 245.43 475.85 221.13 M 583.84 295.79 C 595.56 297.56 607.26 299.53 619.03 301.03 C 604.72 277.28 626.57 252.62 630.99 228.93 C 615.10 251.05 599.08 273.22 583.84 295.79 Z" />
<path fill="#d0d2d3" opacity="1.00" d=" M 418.03 299.95 C 406.52 263.07 415.24 219.79 443.44 192.72 C 428.57 223.65 422.79 259.81 434.07 292.95 C 443.72 326.23 471.11 355.70 506.36 360.91 C 465.49 374.74 426.66 337.95 418.03 299.95 Z" />
<path fill="#000000" opacity="1.00" d=" M 475.85 221.13 C 500.23 245.43 523.28 271.03 547.11 295.88 C 524.35 296.70 501.48 299.43 478.76 298.56 C 488.05 292.94 498.24 288.33 506.88 281.92 C 496.36 261.76 486.75 241.10 475.85 221.13 Z" />
<path fill="#000000" opacity="1.00" d=" M 583.84 295.79 C 599.08 273.22 615.10 251.05 630.99 228.93 C 626.57 252.62 604.72 277.28 619.03 301.03 C 607.26 299.53 595.56 297.56 583.84 295.79 Z" />
<path fill="#d0d2d3" opacity="1.00" d=" M 572.01 334.32 C 576.25 329.82 579.87 324.80 583.75 320.00 C 593.62 335.49 608.61 348.65 627.11 352.16 C 607.92 362.59 584.00 350.51 572.01 334.32 Z" />
<path fill="#db5c87" opacity="1.00" d=" M 162.90 342.04 C 175.83 353.32 188.76 364.78 203.77 373.28 C 215.91 381.36 231.57 365.72 243.05 375.98 C 254.83 384.33 264.18 407.20 281.71 398.97 C 303.27 386.90 321.59 409.81 341.87 413.43 C 361.42 418.76 375.69 398.19 395.14 402.53 C 422.80 408.23 444.61 429.17 472.38 434.71 C 489.35 434.63 505.60 428.88 522.03 425.42 C 542.61 425.39 562.78 419.88 583.09 417.02 C 521.35 460.52 441.44 466.56 368.28 463.85 C 326.42 460.35 284.15 452.33 246.13 433.88 C 207.81 415.88 174.65 383.49 162.90 342.04 Z" />
<path fill="#000000" opacity="1.00" d=" M 356.35 351.45 C 367.75 345.33 381.81 347.86 394.18 349.00 C 394.11 349.71 393.96 351.13 393.89 351.84 C 385.12 360.30 372.91 365.81 360.59 364.95 C 354.71 364.10 349.73 354.70 356.35 351.45 Z" />
<path fill="#000000" opacity="1.00" d=" M 366.81 386.43 C 376.81 375.40 390.47 368.71 403.95 363.01 C 403.29 374.92 401.70 390.57 387.96 394.47 C 381.39 395.15 366.74 396.92 366.81 386.43 Z" />
<path fill="#f05a28" opacity="1.00" d=" M 566.01 366.96 C 585.83 373.87 605.31 381.75 625.17 388.56 C 601.78 393.57 577.74 396.48 554.01 400.00 C 557.79 388.91 561.47 377.76 566.01 366.96 Z" />
</svg>
